<?xml version="1.0" encoding="UTF-8" standalone="no"?>
<!-- Created with Inkscape (http://www.inkscape.org/) -->

<svg
   width="169.438"
   height="200"
   viewBox="0 0 44.830471 52.916667"
   version="1.1"
   id="svg1"
   inkscape:version="1.3.2 (1:1.3.2+202404261509+091e20ef0f)"
   sodipodi:docname="pin.svg"
   inkscape:export-filename="pin.png"
   inkscape:export-xdpi="96"
   inkscape:export-ydpi="96"
   xmlns:inkscape="http://www.inkscape.org/namespaces/inkscape"
   xmlns:sodipodi="http://sodipodi.sourceforge.net/DTD/sodipodi-0.dtd"
   xmlns="http://www.w3.org/2000/svg"
   xmlns:svg="http://www.w3.org/2000/svg">
  <sodipodi:namedview
     id="namedview1"
     pagecolor="#000000"
     bordercolor="#000000"
     borderopacity="0.25"
     inkscape:showpageshadow="2"
     inkscape:pageopacity="0.0"
     inkscape:pagecheckerboard="0"
     inkscape:deskcolor="#d1d1d1"
     inkscape:document-units="mm"
     inkscape:zoom="2"
     inkscape:cx="76.75"
     inkscape:cy="94"
     inkscape:window-width="1440"
     inkscape:window-height="831"
     inkscape:window-x="0"
     inkscape:window-y="0"
     inkscape:window-maximized="1"
     inkscape:current-layer="layer1" />
  <defs
     id="defs1">
    <inkscape:path-effect
       effect="fillet_chamfer"
       id="path-effect7"
       is_visible="true"
       lpeversion="1"
       nodesatellites_param="F,0,0,1,0,4.4979167,0,1 @ F,0,0,1,0,4.4979167,0,1 @ F,0,0,1,0,4.4979167,0,1 @ F,0,0,1,0,4.4979167,0,1 @ F,0,0,1,0,4.4979167,0,1 @ F,0,0,1,0,4.4979167,0,1"
       radius="17"
       unit="px"
       method="auto"
       mode="F"
       chamfer_steps="1"
       flexible="false"
       use_knot_distance="true"
       apply_no_radius="true"
       apply_with_radius="true"
       only_selected="false"
       hide_knots="false" />
    <inkscape:path-effect
       effect="fillet_chamfer"
       id="path-effect20"
       is_visible="true"
       lpeversion="1"
       nodesatellites_param="F,0,0,1,0,0.10583333,0,1 @ F,0,0,1,0,0.10583333,0,1 @ F,0,0,1,0,0.10583333,0,1 @ F,0,0,1,0,0.10583333,0,1 @ F,0,0,1,0,0.10583333,0,1 @ F,0,0,1,0,0.10583333,0,1 @ F,0,0,1,0,0.10583333,0,1 @ F,0,0,1,0,0.10583333,0,1 @ F,0,0,1,0,0.10583333,0,1 @ F,0,0,1,0,0.10583333,0,1 @ F,0,0,1,0,0.10583333,0,1"
       radius="0.4"
       unit="px"
       method="auto"
       mode="F"
       chamfer_steps="1"
       flexible="false"
       use_knot_distance="true"
       apply_no_radius="true"
       apply_with_radius="true"
       only_selected="false"
       hide_knots="false" />
  </defs>
  <g
     inkscape:label="Layer 1"
     inkscape:groupmode="layer"
     id="layer1">
    <g
       id="g7"
       transform="scale(1.7648795,1.7637421)">
      <path
         id="path1"
         style="opacity:1;fill:#ffffff;fill-opacity:1;stroke:none;stroke-width:0.802;stroke-opacity:1"
         d="m 18.999469,8.0690313 c -3.559226,1.2979433 -6.384121,4.1228407 -7.682061,7.6820667 -0.84672,2.321885 -0.872984,6.510346 0.05353,8.796737 0.762282,1.881118 1.976386,3.551211 3.330381,5.13864 1.611917,1.889819 4.367,4.82968 6.034243,6.671203 a 3.8465607,3.8465607 176.14064 0 0 5.690092,-0.383856 c 1.475334,-1.629553 4.111067,-4.365946 5.69802,-6.276414 1.324939,-1.595039 2.465363,-3.269419 3.215451,-5.160727 0.911433,-2.298131 1.004388,-6.463704 0.157664,-8.785594 C 34.198781,12.191693 31.373679,9.3667079 27.814232,8.0688497 25.492313,7.2222234 21.321359,7.2223073 18.999469,8.0690313 Z"
         inkscape:path-effect="#path-effect7"
         inkscape:original-d="m 23.40684,7.2941284 c -7.104714,1.43e-4 -12.864188,5.7596166 -12.864331,12.8643306 -0.09734,5.460634 3.786283,9.134869 7.174239,12.864847 l 5.690092,6.284888 5.690092,-6.284888 C 32.679966,29.274684 36.038814,25.63298 36.271688,20.158458 36.271545,13.053543 30.511756,7.2939859 23.40684,7.2941284 Z"
         sodipodi:nodetypes="scccccs"
         transform="translate(-10.679171,-7.4339342)" />
      <path
         id="circle6"
         style="opacity:1;fill:#aa0000;fill-opacity:1;stroke:none;stroke-width:0.662304;stroke-opacity:1"
         d="M 12.700718,2.077 A 10.623783,10.623783 0 0 0 2.0767667,12.700314 10.623783,10.623783 0 0 0 12.700718,23.324264 10.623783,10.623783 0 0 0 23.324668,12.700314 10.623783,10.623783 0 0 0 12.700718,2.077 Z m 0,5.326284 a 5.2974982,5.2974982 0 0 1 5.297666,5.29703 5.2974982,5.2974982 0 0 1 -5.297666,5.297666 5.2974982,5.2974982 0 0 1 -5.2976673,-5.297666 5.2974982,5.2974982 0 0 1 5.2976673,-5.29703 z" />
    </g>
  </g>
</svg>
