<?xml version="1.0" encoding="UTF-8" standalone="no"?>
<!-- Created with Inkscape (http://www.inkscape.org/) -->

<svg
   width="1500"
   height="1000"
   viewBox="0 0 396.875 264.58332"
   version="1.1"
   id="svg1"
   inkscape:version="1.3.2 (1:1.3.2+202404261509+091e20ef0f)"
   sodipodi:docname="dignitas-logo-allwhite.svg"
   xmlns:inkscape="http://www.inkscape.org/namespaces/inkscape"
   xmlns:sodipodi="http://sodipodi.sourceforge.net/DTD/sodipodi-0.dtd"
   xmlns="http://www.w3.org/2000/svg"
   xmlns:svg="http://www.w3.org/2000/svg">
  <sodipodi:namedview
     id="namedview1"
     pagecolor="#ffffff"
     bordercolor="#000000"
     borderopacity="0.25"
     inkscape:showpageshadow="2"
     inkscape:pageopacity="0.0"
     inkscape:pagecheckerboard="0"
     inkscape:deskcolor="#d1d1d1"
     inkscape:document-units="mm"
     showgrid="false"
     showguides="true"
     inkscape:zoom="0.125"
     inkscape:cx="752"
     inkscape:cy="280"
     inkscape:window-width="1440"
     inkscape:window-height="831"
     inkscape:window-x="0"
     inkscape:window-y="0"
     inkscape:window-maximized="1"
     inkscape:current-layer="layer2">
    <inkscape:grid
       id="grid2"
       units="mm"
       originx="-44.450001"
       originy="-11.641666"
       spacingx="0.99999999"
       spacingy="0.99999999"
       empcolor="#0099e5"
       empopacity="0.30196078"
       color="#0099e5"
       opacity="0.14901961"
       empspacing="5"
       dotted="false"
       gridanglex="30"
       gridanglez="30"
       visible="false" />
  </sodipodi:namedview>
  <defs
     id="defs1">
    <inkscape:path-effect
       effect="fillet_chamfer"
       id="path-effect41"
       is_visible="false"
       lpeversion="1"
       nodesatellites_param="F,0,0,1,0,10.31875,0,1 @ F,0,0,1,0,10.31875,0,1 @ F,0,0,1,0,10.31875,0,1 @ F,0,0,1,0,10.31875,0,1 @ F,0,0,1,0,10.31875,0,1 | F,0,0,1,0,10.31875,0,1 @ F,0,0,1,0,10.31875,0,1 @ F,0,0,1,0,10.31875,0,1 @ F,0,0,1,0,10.31875,0,1 @ F,0,0,1,0,10.31875,0,1 @ F,0,0,1,0,10.31875,0,1 @ F,0,0,1,0,10.31875,0,1 @ F,0,0,1,0,10.31875,0,1 @ F,0,0,1,0,10.31875,0,1 @ F,0,0,1,0,10.31875,0,1 @ F,0,0,1,0,10.31875,0,1 @ F,0,0,1,0,10.31875,0,1 @ F,0,0,1,0,10.31875,0,1 @ F,0,0,1,0,10.31875,0,1 @ F,0,0,1,0,10.31875,0,1 @ F,0,0,1,0,10.31875,0,1 @ F,0,0,1,0,10.31875,0,1 | F,0,0,1,0,10.31875,0,1 @ F,0,0,1,0,10.31875,0,1 @ F,0,0,1,0,10.31875,0,1 @ F,0,0,1,0,10.31875,0,1 @ F,0,0,1,0,10.31875,0,1 @ F,0,0,1,0,10.31875,0,1 @ F,0,0,1,0,10.31875,0,1 @ F,0,0,1,0,10.31875,0,1"
       radius="39"
       unit="px"
       method="auto"
       mode="F"
       chamfer_steps="1"
       flexible="false"
       use_knot_distance="true"
       apply_no_radius="true"
       apply_with_radius="true"
       only_selected="false"
       hide_knots="false" />
    <inkscape:path-effect
       effect="knot"
       id="path-effect40"
       is_visible="true"
       lpeversion="1"
       switcher_size="15"
       interruption_width="3"
       prop_to_stroke_width="true"
       add_stroke_width="inkscape_1.0_and_up"
       both="false"
       inverse_width="false"
       add_other_stroke_width="inkscape_1.0_and_up"
       crossing_points_vector="" />
    <inkscape:path-effect
       effect="envelope"
       id="path-effect39"
       is_visible="true"
       lpeversion="1"
       yy="true"
       xx="true"
       bendpath1="M 104.13349,74.279327 168.22156,28.660302"
       bendpath2="m 198.50924,103.32723 -5.25379,137.60613"
       bendpath3="M 61.841185,231.32902 168.51445,255.00608"
       bendpath4="M 93.462831,57.08771 59.672412,248.61536"
       bendpath1-nodetypes="cc"
       bendpath2-nodetypes="cc"
       bendpath3-nodetypes="cc"
       bendpath4-nodetypes="cc" />
    <clipPath
       clipPathUnits="userSpaceOnUse"
       id="clipPath30">
      <path
         id="path30"
         style="fill:#800000;stroke-width:2.80366"
         inkscape:transform-center-y="-26.41729"
         d="m 47.519723,144.60442 -13.342941,31.99651 -26.3073479,-22.57771 -17.231137,20.07856 26.3075439,22.57724 -29.601957,18.0429 13.7706402,22.59262 29.6014848,-18.0431 8.012591,33.72863 25.74219,-6.11528 -8.012595,-33.72863 34.55378,2.80269 2.138857,-26.37223 -34.553966,-2.80222 13.34294,-31.9965 z" />
    </clipPath>
    <clipPath
       clipPathUnits="userSpaceOnUse"
       id="clipPath54">
      <path
         id="path54"
         style="fill:#000080;fill-opacity:1;stroke:none;stroke-width:22.4945;stroke-dasharray:none;stroke-opacity:1"
         d="m 164.6261,84.936362 -28.52121,0.131835 -4.24672,24.753093 28.52121,-0.13183 z" />
    </clipPath>
  </defs>
  <g
     inkscape:groupmode="layer"
     id="layer2"
     inkscape:label="Layer 2"
     transform="translate(-44.45,-11.641667)">
    <g
       id="g1"
       transform="matrix(2.879604,0,0,2.879604,-91.433462,-43.625335)"
       style="fill:#ffffff;fill-opacity:1">
      <path
         id="text44"
         style="font-style:normal;font-variant:normal;font-weight:900;font-stretch:normal;font-size:35.4728px;font-family:Poppins;-inkscape-font-specification:'Poppins, Heavy';font-variant-ligatures:normal;font-variant-caps:normal;font-variant-numeric:normal;font-variant-east-asian:normal;word-spacing:0px;fill:#ffffff;fill-opacity:1;stroke:none;stroke-width:3.13317;stroke-dasharray:none;stroke-opacity:1"
         d="m 104.99221,60.245271 -7.874952,-2.4e-5 4.2e-5,25.114547 7.87495,2.4e-5 z m -11.422329,-2.75e-4 -7.874511,6.7e-5 -5.87e-4,12.841293 -8.336068,-12.841038 -7.874952,-2.4e-5 4.3e-5,25.114547 7.874951,2.4e-5 -1.4e-4,-12.627955 8.336362,12.628217 7.874951,2.4e-5 z m -35.333096,0.08604 c -1.059749,-0.222813 -2.205913,-0.334359 -3.438592,-0.334359 -2.577687,0 -4.824752,0.544334 -6.740281,1.632165 -1.915529,1.064183 -3.39342,2.565946 -4.433954,4.505124 -1.016886,1.939178 -1.525195,4.149939 -1.525195,6.633032 0,2.483094 0.508447,4.694389 1.525333,6.633567 1.040535,1.939178 2.51868,3.452431 4.434209,4.540263 1.939178,1.064182 4.209616,1.5963 6.810952,1.5963 2.932415,0 5.355928,-0.661897 7.271457,-1.986214 1.915529,-1.347965 3.417729,-2.956254 4.505561,-4.824486 l -1.13e-4,-7.874813 -12.806128,2.28e-4 2.18e-4,5.568924 6.278525,1.92e-4 c -1.11148,1.466208 -2.577329,2.199321 -4.398265,2.199321 -1.915529,0 -3.334309,-0.485046 -4.256601,-1.454635 -0.922292,-0.969589 -1.383884,-2.435629 -1.383884,-4.398455 0,-1.702693 0.414033,-3.038952 1.241731,-4.008541 0.827698,-0.993237 1.998584,-1.489943 3.512088,-1.489943 0.80405,0 1.489546,0.141928 2.05711,0.42571 0.567564,0.260134 1.00496,0.638631 1.312391,1.135249 l 8.300637,1.76e-4 C 66.125608,66.110266 64.895908,63.958238 62.814839,62.373788 61.528951,61.383506 60.003033,60.702396 58.236785,60.33104 Z m -18.975773,-0.086 -7.874952,-2.4e-5 4.9e-5,25.115155 7.874951,2.4e-5 z M 19.183533,60.64429 c -1.146952,-0.266045 -2.376774,-0.398972 -3.689266,-0.398972 l -10.4646419,1.96e-4 4.23e-5,25.114547 10.4646416,-1.96e-4 c 2.624985,0 4.918479,-0.543656 6.881305,-1.631487 1.986475,-1.11148 3.512155,-2.625024 4.576338,-4.540553 1.064183,-1.91553 1.596549,-4.067831 1.596549,-6.456331 0,-2.412148 -0.53212,-4.564112 -1.596303,-6.455993 -1.064183,-1.891881 -2.589775,-3.369619 -4.57625,-4.433802 -0.981413,-0.532091 -2.045462,-0.931363 -3.192415,-1.197409 z m -3.137213,6.57357 c 1.192772,0.181798 2.179251,0.636142 2.959652,1.363334 1.040535,0.969589 1.560831,2.353339 1.560831,4.150626 0,1.797286 -0.519891,3.180421 -1.560425,4.15001 -1.040535,0.969589 -2.447874,1.454727 -4.221512,1.454727 l -1.880222,-3.38e-4 9.6e-5,-11.209304 1.879781,2.47e-4 c 0.44341,0 0.864208,0.0301 1.261799,0.0907 z m 50.511015,19.67427 c -0.805855,-0.199534 -1.784974,-0.299265 -2.937839,-0.299265 -1.820935,0 -3.712536,0.29529 -5.67483,0.886503 -1.938645,0.591213 -3.81972,1.466394 -5.643396,2.625171 -1.780184,1.135128 -3.355087,2.518535 -4.724285,4.150282 -1.392847,1.631747 -2.147628,2.968122 -2.263988,4.008656 -0.116359,1.040535 0.117666,1.832633 0.701801,2.376543 0.607783,0.54392 1.477937,1.0994 2.609793,1.66697 0.951096,0.47297 1.586878,0.89891 1.907892,1.27728 0.340858,0.35473 0.263495,0.82778 -0.232591,1.41899 -0.357183,0.42567 -0.779175,0.74501 -1.265197,0.95784 -0.44253,0.18919 -0.876375,0.28368 -1.302048,0.28368 -1.158777,0 -1.192021,-0.72147 -0.09981,-2.16403 l -8.3718,2.6e-4 c -2.116458,2.71958 -2.800341,4.78856 -2.05177,6.20747 0.792062,1.39526 2.690196,2.09286 5.693557,2.09286 1.986475,0 3.988241,-0.34256 6.00626,-1.02837 2.01802,-0.68581 3.911821,-1.63217 5.680589,-2.83824 1.788612,-1.22972 3.327714,-2.61278 4.617538,-4.14993 1.230295,-1.46621 1.87368,-2.68414 1.930509,-3.65373 0.05683,-0.969587 -0.206557,-1.726692 -0.790692,-2.270608 -0.560486,-0.543916 -1.385197,-1.111239 -2.473561,-1.702451 -0.935057,-0.520268 -1.573132,-0.957786 -1.91399,-1.312514 -0.297366,-0.378376 -0.207627,-0.851247 0.268616,-1.418811 0.337339,-0.402024 0.701952,-0.709603 1.093379,-0.92244 0.411272,-0.236485 0.782164,-0.354891 1.113243,-0.354891 0.472971,0 0.745991,0.153806 0.819105,0.461237 0.07311,0.307431 -0.175948,0.815835 -0.747603,1.52529 l 8.477679,4.24e-4 c 2.068343,-2.577687 2.787671,-4.576267 2.157343,-5.995178 -0.379175,-0.886819 -1.24081,-1.49644 -2.583901,-1.828998 z m -23.124412,0.126539 -9.080842,-3.07e-4 -30.2613624,25.114788 8.2650534,9e-5 4.426824,-3.79578 8.371366,2.6e-4 -1.943446,3.79539 8.300637,1.8e-4 z m -18.622948,-2.44e-4 -21.1419098,5.8e-5 -5.238524,6.243029 6.5978982,1.78e-4 -15.8352504,18.87172 7.8749515,2e-5 15.8352505,-18.871716 6.66906,-2.59e-4 z m 6.992652,8.407289 -3.593482,6.987996 -4.540201,-10e-5 z"
         transform="matrix(1,-0.17632698,0.83909963,0.8520441,0,0)" />
      <rect
         style="fill:#ffffff;stroke:none;stroke-width:10.7997;stroke-dasharray:none;stroke-opacity:1;fill-opacity:1"
         id="rect53"
         width="37.717941"
         height="27.716972"
         x="129.8849"
         y="83.186974"
         transform="rotate(-9.7350855)"
         clip-path="url(#clipPath54)" />
    </g>
  </g>
</svg>
